<svg fill="none" xmlns="http://www.w3.org/2000/svg" viewBox="0 0 182 77"><path d="M41.734 42.272c-1.773-1.67-4.026-3.274-6.752-4.809-2.729-1.535-5.934-3.221-9.616-5.062-4.91-2.456-8.815-4.773-11.711-6.958-2.9-2.182-4.348-5.249-4.348-9.207 0-3.958 1.364-7.125 4.09-9.31 2.726-2.182 6.343-3.273 10.843-3.273 1.364 0 2.71.103 4.039.306 1.33.206 2.61.512 3.836.92l8.39 17.083h2.864V4.985C40.98 3.691 38.1 2.548 34.725 1.558 31.352.57 27.82.074 24.14.074c-3.273 0-6.379.444-9.31 1.33-2.932.887-5.475 2.181-7.621 3.887a18.922 18.922 0 0 0-5.114 6.24C.83 13.986.202 16.783.202 19.918c0 3.135.58 5.645 1.738 7.927a21.047 21.047 0 0 0 4.503 5.985c1.84 1.706 3.92 3.222 6.24 4.551 2.317 1.33 4.591 2.629 6.854 3.836 3.122 1.665 5.848 3.122 8.133 4.451 2.285 1.33 4.142 2.645 5.574 3.939 1.432 1.297 2.507 2.694 3.221 4.194.718 1.5 1.075 3.24 1.075 5.216 0 4.297-1.432 7.537-4.296 9.72-2.864 2.181-6.649 3.272-11.354 3.272-7.396.217-14.62-2.463-19.34-7.039L.202 68.485c5.399 5.315 13.653 8.433 21.582 8.106 3.48 0 6.768-.46 9.873-1.38 3.103-.921 5.78-2.286 8.03-4.091 2.25-1.806 4.042-4.059 5.371-6.752 1.33-2.694 1.995-5.78 1.995-9.259 0-2.797-.444-5.217-1.329-7.263-.888-2.047-2.217-3.904-3.99-5.574ZM115.595 35.774l-1.635 2.659h-.615l1.944-14.424h-9.922v51.147h16.571v-3.273H115.8V41.706c.545-1.294 1.178-2.42 1.893-3.376a15.546 15.546 0 0 1 2.404-2.558h13.706V24.009c-3.819.682-7.298 2.098-10.433 4.245-3.138 2.15-5.729 4.653-7.775 7.518v.002ZM150.428 24.011h-10.436V75.16h16.574v-3.273h-6.138V24.01ZM150.426 1.506h-10.434v10.442h10.434V1.506ZM88.74 65.031c-2.73 2.114-5.9 3.173-9.514 3.173-2.659 0-5.014-.563-7.058-1.69a14.974 14.974 0 0 1-5.114-4.602c-1.364-1.944-2.404-4.26-3.118-6.954-.718-2.694-1.075-5.61-1.075-8.747v-1.535h34.677c0-3.136-.48-6.07-1.432-8.799-.956-2.726-2.337-5.062-4.143-7.006-1.808-1.944-4.006-3.479-6.597-4.602-2.594-1.127-5.49-1.687-8.696-1.687-3.205 0-6.359.715-9.258 2.15-2.9 1.432-5.423 3.41-7.57 5.934-2.15 2.523-3.852 5.509-5.114 8.95-1.261 3.443-1.892 7.176-1.892 11.202 0 3.614.512 6.99 1.535 10.128s2.507 5.866 4.45 8.184c1.945 2.32 4.349 4.145 7.213 5.474 2.864 1.329 6.102 1.995 9.719 1.995 2.864 0 5.487-.53 7.878-1.587a22.297 22.297 0 0 0 6.343-4.193c1.84-1.738 3.427-3.785 4.756-6.137 1.33-2.353 1.887-3.303 2.707-5.826l-2.867-1.23c-1.234 2.89-3.175 5.364-5.823 7.416l-.008-.011ZM67.36 30.609c2.182-2.967 5.114-4.45 8.799-4.45 3.34 0 5.796 1.466 7.363 4.398 1.568 2.932 2.388 6.481 2.456 10.64H63.167c.614-4.09 2.011-7.621 4.193-10.588ZM172.99 71.883h6.129v3.276h-16.57V20.903c0-6.278 1.859-11.735 5.579-15.25C171.848 2.14 176.472.28 182 .075v11.874h-14.741v1.229c0 2.732.769 5.715 2.304 7.762 1.535 2.046 3.804 3.07 6.806 3.07h5.617v4.737h-8.993V71.88l-.003.003Z" fill="currentColor"/></svg>