<svg fill="none" xmlns="http://www.w3.org/2000/svg" viewBox="0 0 50 50"><path d="M34.91 27.15c-.97-.915-2.204-1.792-3.696-2.632a123.75 123.75 0 0 0-5.263-2.77c-2.688-1.345-4.824-2.613-6.41-3.809-1.586-1.194-2.38-2.873-2.38-5.04 0-2.165.748-3.899 2.24-5.095 1.492-1.194 3.471-1.791 5.934-1.791.747 0 1.483.056 2.21.167.728.113 1.429.28 2.1.504l4.592 9.35h1.567V6.742c-1.306-.708-2.883-1.334-4.73-1.876a20.508 20.508 0 0 0-5.794-.812c-1.791 0-3.49.243-5.096.728-1.604.486-2.995 1.194-4.17 2.127a10.355 10.355 0 0 0-2.8 3.416c-.691 1.344-1.035 2.874-1.035 4.59 0 1.716.317 3.09.951 4.338a11.52 11.52 0 0 0 2.464 3.276 18.607 18.607 0 0 0 3.416 2.491c1.268.728 2.512 1.439 3.751 2.1 1.709.91 3.2 1.708 4.451 2.436 1.25.727 2.267 1.447 3.051 2.155.784.71 1.372 1.475 1.763 2.296.393.82.588 1.773.588 2.855 0 2.351-.783 4.125-2.351 5.32-1.568 1.193-3.639 1.79-6.214 1.79-4.048.119-8.001-1.348-10.585-3.852l-1.285 1.377c2.954 2.908 7.472 4.615 11.812 4.436 1.904 0 3.704-.252 5.404-.756 1.698-.504 3.163-1.25 4.394-2.239 1.232-.988 2.213-2.22 2.94-3.695.728-1.474 1.092-3.163 1.092-5.068 0-1.53-.243-2.855-.727-3.975-.486-1.12-1.214-2.136-2.184-3.05Z" fill="none"/><style>
        path { fill: #2E2D29; }
        @media (prefers-color-scheme: dark) {
            path { fill: #e5e5e5; }
        }
    </style></svg>